<?xml version="1.0" encoding="utf-8"?>
<!-- Svg Vector Icons : http://www.onlinewebfonts.com/icon -->
<!DOCTYPE svg PUBLIC "-//W3C//DTD SVG 1.1//EN" "http://www.w3.org/Graphics/SVG/1.1/DTD/svg11.dtd">
<svg version="1.1" xmlns="http://www.w3.org/2000/svg" xmlns:xlink="http://www.w3.org/1999/xlink" x="0px" y="0px" viewBox="0 0 1000 1000" enable-background="new 0 0 1000 1000" xml:space="preserve">
<metadata> Svg Vector Icons : http://www.onlinewebfonts.com/icon </metadata>
<g><g transform="translate(0.000000,512.000000) scale(0.100000,-0.100000)"><path fill="#0780BC" d="M4631.2,5015.7c-634.2-57.5-1212.8-212.7-1755.1-475.2c-546.1-264.4-894.8-513.5-1339.3-959.9c-446.4-446.4-676.4-766.4-948.4-1322.1c-231.8-469.4-367.9-914-454.1-1465.8c-46-308.5-46-1032.7,1.9-1341.2c90.1-586.3,239.5-1057.6,488.6-1548.1c254.8-496.3,494.3-822,912-1239.7c438.8-440.7,764.5-674.4,1302.9-938.9c343-168.6,567.1-252.9,915.9-344.9c1452.4-383.2,2981.4-76.6,4209.5,839.2c233.8,176.3,756.8,699.3,933.1,933.1C9909.8-1493,10170.4,202.7,9610.9,1779.6c-168.6,475.2-484.8,1032.7-812.4,1437c-187.8,231.8-609.3,640-837.3,810.5C7286.8,4532.9,6530,4849,5685,4979.3C5491.5,5008.1,4817,5033,4631.2,5015.7z M5437.8,4624.9c555.7-55.6,1046.2-197.3,1559.7-450.3c906.3-446.4,1601.8-1142,2050.1-2050.1C9381,1451.9,9534.3,746.8,9511.3-11.9c-21.1-689.8-161-1255-463.7-1868.1c-657.2-1333.5-1883.4-2228.3-3391.4-2475.5c-297-47.9-1004-47.9-1312.5,0c-492.4,76.6-902.4,205-1350.8,425.4c-910.1,444.5-1611.4,1143.9-2059.7,2050.1C605.6-1219,465.7-621.2,465.7,122.2c0,733.8,137.9,1335.5,456,1983.1c235.7,480.9,486.7,829.6,864.1,1207.1c653.4,655.3,1465.8,1086.4,2364.4,1255C4544.9,4642.1,5043.1,4663.2,5437.8,4624.9z"/><path fill="#0780BC" d="M4050.6,2273.9c-3.8-9.6-17.3-46-28.7-82.4c-11.5-36.4-65.2-206.9-118.8-377.5l-97.7-312.3h-678.3h-680.2V-270.6v-1772.3h2749.5h2749.5v1772.3v1772.3h-705.1h-703.2l-115,389l-115,387l-1124.7,5.7C4564.1,2285.4,4054.4,2281.6,4050.6,2273.9z M6072,1702.9c28.7-93.9,53.6-178.2,53.6-185.9c0-9.6-427.3-15.3-948.4-15.3c-521.2,0-948.4,3.8-948.4,9.6s26.8,92,59.4,191.6l57.5,182l835.4-3.8l837.3-5.7L6072,1702.9z M3615.7-270.6v-1370h-392.8h-392.8v1370v1370h392.8h392.8V-270.6z M6374.8-270.6v-1370H5196.4H4018v1370v1370h1178.4h1178.3V-270.6z M7562.7-270.6v-1370h-402.4H6758v1370v1370h402.4h402.4V-270.6z"/></g></g>
</svg>