<?xml version="1.0" encoding="utf-8"?>
<!-- Svg Vector Icons : http://www.onlinewebfonts.com/icon -->
<!DOCTYPE svg PUBLIC "-//W3C//DTD SVG 1.1//EN" "http://www.w3.org/Graphics/SVG/1.1/DTD/svg11.dtd">
<svg version="1.1" xmlns="http://www.w3.org/2000/svg" xmlns:xlink="http://www.w3.org/1999/xlink" x="0px" y="0px" viewBox="0 0 1000 1000" enable-background="new 0 0 1000 1000" xml:space="preserve">
<metadata> Svg Vector Icons : http://www.onlinewebfonts.com/icon </metadata>
<g><path fill="#0780BC" d="M461.3,727.9c-22,0-39.9,17.9-39.9,39.9c0,22.1,17.9,39.8,39.9,39.8c22,0,39.8-17.8,39.8-39.8C501.2,745.8,483.3,727.9,461.3,727.9z"/><path fill="#0780BC" d="M697.4,727.9c-22.1,0-39.8,17.9-39.8,39.9c0,22.1,17.8,39.8,39.8,39.8c22,0,39.8-17.8,39.8-39.8C737.2,745.8,719.4,727.9,697.4,727.9z"/><path fill="#0780BC" d="M772.6,352.3H389.8l-46.3-117.2c-2.8-7-9.6-11.7-17.1-11.7H174.6c-10.2,0-18.4,8.3-18.4,18.4c0,10.1,8.2,18.4,18.4,18.4h139.2l133.7,338.5c-25.6,4.2-62.8,14.9-77.5,41.9c-6.9,12.9-11.5,34.5,6.5,64.5c3.3,5.6,9.3,9,15.8,9c0.1,0,0.2,0,0.3,0c1.7,0,170.8-3.1,370.7-3.1c10.1,0,18.4-8.3,18.4-18.4c0-10.1-8.3-18.4-18.4-18.4c-170.5,0-318.6,2.2-359.9,2.9c-3.3-7.8-3.6-14.2-1-19c8.6-15.9,47.2-24.4,71.8-25.3c0.4,0,0.8-0.2,1.2-0.3c0.6,0,1.4,0,2.1-0.2L692,585.2c1.1-0.1,2.2-0.4,3.4-0.7l81.1-17.9c8.4-1.9,14.4-9.4,14.4-17.9V370.7C791,360.6,782.7,352.3,772.6,352.3z M605,389.2v0.2l24.5,66.7l-92.1,5.8L512,389.2L605,389.2L605,389.2z M435.6,468.2l-31.3-79h68.8l26.2,75L435.6,468.2z M484.9,593.2l-35.1-88.9l62-3.9L540,581L484.9,593.2z M576.2,573.1L550,497.8l92.7-5.8l22.5,61.4L576.2,573.1z M754.2,533.8l-52.7,11.6L681,489.6l73.1-4.6V533.8z M754.2,448.1l-86.4,5.4l-23.6-64.4h110V448.1z"/><path fill="#0780BC" d="M500,990C229.8,990,10,770.2,10,500C10,229.8,229.8,10,500,10c270.2,0,490,219.8,490,490C990,770.2,770.2,990,500,990z M500,64.7C259.9,64.7,64.7,260,64.7,500c0,240,195.3,435.4,435.3,435.4c240,0,435.4-195.3,435.4-435.4C935.3,260,740,64.7,500,64.7z"/></g>
</svg>