<?xml version="1.0" encoding="utf-8"?>
<!-- Generator: Adobe Illustrator 17.0.0, SVG Export Plug-In . SVG Version: 6.00 Build 0)  -->
<!DOCTYPE svg PUBLIC "-//W3C//DTD SVG 1.1//EN" "http://www.w3.org/Graphics/SVG/1.1/DTD/svg11.dtd">
<svg version="1.1" id="Layer_1" xmlns="http://www.w3.org/2000/svg" xmlns:xlink="http://www.w3.org/1999/xlink" x="0px" y="0px"
	 width="347.484px" height="347.484px" viewBox="0 0 347.484 347.484" enable-background="new 0 0 347.484 347.484"
	 xml:space="preserve">
<circle fill="none" stroke="#0780BC" stroke-width="8" stroke-miterlimit="10" cx="173.742" cy="173.742" r="169.742"/>
<path fill="#0780BC" d="M214.986,245.92c0,11.383,9.218,20.622,20.622,20.622c11.383,0,20.622-9.239,20.622-20.622
	c0-11.404-9.239-20.622-20.622-20.622C224.205,225.298,214.986,234.516,214.986,245.92z M111.875,245.92
	c0,11.383,9.228,20.622,20.622,20.622c11.373,0,20.622-9.239,20.622-20.622c0-11.404-9.249-20.622-20.622-20.622
	C121.104,225.298,111.875,234.516,111.875,245.92z M148.449,196.138l114.123-32.604c2.176-0.629,3.97-2.98,3.97-5.259v-56.711
	H122.186V85.066c0-2.268-1.866-4.124-4.114-4.124H85.056c-2.258,0-4.114,1.856-4.114,4.124v16.498h20.622l19.694,92.357l0.928,9.723
	v17.003c0,2.258,1.856,4.124,4.124,4.124h136.107c2.268,0,4.124-1.877,4.124-4.124v-15.972H150.563
	C138.705,204.675,138.457,198.994,148.449,196.138z"/>
</svg>
