<svg xmlns="http://www.w3.org/2000/svg" viewBox="0 0 45 45" enable-background="new 0 0 45 45"><g fill="#0780BC"><path d="M43.6 22.5c-.2 11.8-9.4 21.1-21.1 21-11.8 0-21-9.3-21-21.1 0-11.9 9.4-21.1 21.1-21 11.8.1 20.9 9.4 21 21.1zm-2 0c0-10.5-8.5-19.1-19-19.1s-19.1 8.5-19.1 19 8.5 19.1 19 19.1c10.5.1 19-8.4 19.1-19zM16.2 25.4v3.2c0 .1-.1.2-.2.3-.8.3-1.5.6-2.3.8-1.2.4-2.4-.1-2.8-1.3-1-2.6-1.9-5.2-2.8-7.8-.4-1.1.2-2.4 1.3-2.9 2.4-.9 4.9-1.8 7.3-2.6 2.1-.8 4.2-1.5 6.2-2.3 1.2-.4 2.4.1 2.8 1.3l1.5 4v.2h-7.6c-1.7 0-3 1-3.3 2.6-.1.3-.1.6-.1.9v2.3c0 .2-.1.3-.3.4l-2.8 1c-.4.1-.5.4-.4.7.1.3.4.4.8.3l2.4-.9c.1-.2.2-.2.3-.2zm-3.8-2h.2l1.7-.6c.4-.2.6-.6.5-1l-.4-1.1c-.2-.5-.6-.7-1.1-.5l-1.7.6c-.4.2-.6.6-.5 1l.4 1.2c.2.2.5.4.9.4zM26.8 32.1h-7.1c-1.4 0-2.3-1-2.3-2.3v-8.1c0-.8.3-1.5 1-1.9.3-.2.7-.4 1.2-.4h14.6c1.1 0 2.1.9 2.1 2 .1 1.1 0 2.2 0 3.3v5.1c0 1.1-.6 2-1.7 2.2l-.6.1h-7.2zm-7.9-6.9v4.7c0 .4.3.7.7.7h14.299999999999999c.6 0 .8-.2.8-.8v-4.3c0-.2-.1-.3-.3-.3h-15.5zm0-2.7h15.8v-.8c0-.6-.2-.9-.8-.9h-14.3c-.4 0-.7.2-.8.6.1.4.1.8.1 1.1zM24.5 27.6h-3.7c-.3 0-.5-.2-.6-.5 0-.2.1-.5.4-.5h7.7c.4 0 .6.2.6.5s-.2.5-.6.5h-3.8z"/></g></svg>