<svg id="Layer_1" data-name="Layer 1" xmlns="http://www.w3.org/2000/svg" viewBox="0 0 97.22 97.22"><defs><style>.cls-1{fill:none;stroke:#0780BC;stroke-miterlimit:10;stroke-width:4px;}.cls-2{fill:#0780BC;}</style></defs><title>Автосервис</title><circle class="cls-1" cx="48.61" cy="48.61" r="46.61"/><path class="cls-2" d="M76.43,69.57l-8.26-8.31-1.61-1.63s0.62-2.63,0-3.24l-1-1a0.89,0.89,0,0,0-1.32.1L61.7,58l-6.82-6.87,3.69-3.66a12.08,12.08,0,0,0,5.56,1.41A12.2,12.2,0,0,0,76.36,36.71a1.47,1.47,0,0,0-2.5-1L69.5,40l-7.1-1.54-1.5-7.11L65.24,27a1.5,1.5,0,0,0-1.05-2.56A12.2,12.2,0,0,0,52,36.63a12.06,12.06,0,0,0,1.68,6.12l-3.56,3.54L39,35.12l-2.42-4.06-3.23-3.25L27,24.35l-1,1-1,1,3.42,6.29,3.23,3.25,4,2.44L46.82,49.53l-3.57,3.54a12.08,12.08,0,0,0-6.11-1.72A12.2,12.2,0,0,0,24.9,63.52a1.46,1.46,0,0,0,2.5,1l4.36-4.33,7.11,1.54,1.5,7.11L36,73.21a1.5,1.5,0,0,0,1,2.55A12.21,12.21,0,0,0,49.31,63.6,12.09,12.09,0,0,0,47.93,58l3.69-3.67,6.82,6.86L55.9,63.75a0.9,0.9,0,0,0-.11,1.32l1,1c0.61,0.61,3.24,0,3.24,0l1.62,1.63L69.93,76a3,3,0,0,0,3.25,0l1.63-1.62,1.63-1.61A3,3,0,0,0,76.43,69.57Z" transform="translate(-1.56 -1.18)"/></svg>