<svg xmlns="http://www.w3.org/2000/svg" xmlns:xlink="http://www.w3.org/1999/xlink" viewBox="0 0 98.52 98.52"><defs><style>.cls-1,.cls-4{fill:none;}.cls-2{fill:#0780BC;}.cls-3{clip-path:url(#clip-path);}.cls-4{stroke:#0780BC;stroke-width:4.89px;}</style><clipPath id="clip-path"><path class="cls-1" d="M33.48,28.64h17.4V42.54H33.48Zm23.15.1a11.88,11.88,0,0,1,5.65,7.71c.8,3.19,2.61,6.19,3.06,9.4.75,5.32.74,10.75,1.13,16.13.18,2.43-1.31,3.59-3.81,3.7S58.18,64,58.46,61.81a59.64,59.64,0,0,1,2-10.52c1.27-4-1-8.57-5.21-9.18-1.35-.19-1.84-.72-1.82-2.09.08-3.57,0-7.14,0-10.71,0-2.7-1-3.69-3.64-3.7-5.17,0-10.34,0-15.52,0-3.49,0-3.85.37-3.85,3.9q0,20.32,0,40.64c0,.56-.09,1.12-.13,1.63l-2,.43v2.37H55.27V72.16c-1.66,0-1.87-1-1.84-2.4.09-4,0-8,0-12V45.6c3.14.42,3.93,1.9,3.41,4.51C56,54.27,55.4,58.48,55,62.7c-.35,3.54,3.11,6.43,7.49,6.89,3.54.37,7.28-2.46,7.6-6,.3-3.26.14-6.57.13-9.86a38.37,38.37,0,0,0-4.19-17l2-2.26c-2.27-5.72-6.45-8.48-12.18-9.08-.62,2.26-.65,2.52.75,3.36"/></clipPath></defs><title>Ресурс 10</title><g id="Слой_2" data-name="Слой 2"><g id="Слой_1-2" data-name="Слой 1"><path class="cls-2" d="M56.62,28.73a11.88,11.88,0,0,1,5.65,7.71c.8,3.19,2.61,6.19,3.06,9.4.75,5.32.74,10.75,1.13,16.13.18,2.43-1.31,3.59-3.81,3.7S58.18,64,58.46,61.81a59.64,59.64,0,0,1,2-10.52c1.27-4-1-8.57-5.21-9.18-1.35-.19-1.84-.72-1.82-2.09.08-3.57,0-7.14,0-10.71,0-2.7-1-3.69-3.64-3.7-5.17,0-10.34,0-15.52,0-3.49,0-3.85.37-3.85,3.9q0,20.32,0,40.64c0,.56-.09,1.12-.13,1.63l-2,.43v2.37H55.27V72.16c-1.66,0-1.87-1-1.84-2.4.09-4,0-8,0-12V45.6c3.14.42,3.93,1.9,3.41,4.51C56,54.27,55.4,58.48,55,62.7c-.35,3.54,3.11,6.43,7.49,6.89,3.54.37,7.28-2.46,7.6-6,.3-3.26.14-6.57.13-9.86a38.39,38.39,0,0,0-4.19-17l2-2.26c-2.27-5.72-6.45-8.48-12.18-9.08-.62,2.26-.66,2.52.75,3.36m-23.14-.1h17.4V42.54H33.48Z"/><path class="cls-2" d="M56.62,28.73a11.88,11.88,0,0,1,5.65,7.71c.8,3.19,2.61,6.19,3.06,9.4.75,5.32.74,10.75,1.13,16.13.18,2.43-1.31,3.59-3.81,3.7S58.18,64,58.46,61.81a59.64,59.64,0,0,1,2-10.52c1.27-4-1-8.57-5.21-9.18-1.35-.19-1.84-.72-1.82-2.09.08-3.57,0-7.14,0-10.71,0-2.7-1-3.69-3.64-3.7-5.17,0-10.34,0-15.52,0-3.49,0-3.85.37-3.85,3.9q0,20.32,0,40.64c0,.56-.09,1.12-.13,1.63l-2,.43v2.37H55.27V72.16c-1.66,0-1.87-1-1.84-2.4.09-4,0-8,0-12V45.6c3.14.42,3.93,1.9,3.41,4.51C56,54.27,55.4,58.48,55,62.7c-.35,3.54,3.11,6.43,7.49,6.89,3.54.37,7.28-2.46,7.6-6,.3-3.26.14-6.57.13-9.86a38.39,38.39,0,0,0-4.19-17l2-2.26c-2.27-5.72-6.45-8.48-12.18-9.08-.62,2.26-.66,2.52.75,3.36m-23.14-.1h17.4V42.54H33.48Z"/><g class="cls-3"><rect class="cls-2" x="28.35" y="25.37" width="42.03" height="49.21"/></g><circle class="cls-4" cx="49.26" cy="49.26" r="46.81"/></g></g></svg>