<svg xmlns="http://www.w3.org/2000/svg" viewBox="0 0 82.03 82.03"><defs><style>.a{fill:#0780BC;}.b{fill:#0780BC;}</style></defs><title>icon_complex_01</title><path class="a" d="M375,4019a41,41,0,1,1,41-41A41.06,41.06,0,0,1,375,4019Zm0-78a37,37,0,1,0,37,37A37.06,37.06,0,0,0,375,3941Z" transform="translate(-334.03 -3936.97)"/><path class="a" d="M375.36,4006h-0.29a2,2,0,0,1-.34-0.05c-10.22-1.78-17.53-10.26-21.13-24.49a83.68,83.68,0,0,1-2.38-20.55,2,2,0,0,1,2.42-1.9,120.17,120.17,0,0,0,22.58,2,114.55,114.55,0,0,0,20.59-2,2,2,0,0,1,2.41,1.9,83.65,83.65,0,0,1-2.38,20.55c-3.6,14.23-10.91,22.72-21.13,24.5A2,2,0,0,1,375.36,4006Zm-20.12-42.65c0.22,8.21,2.29,35.31,20,38.59,17.69-3.28,19.76-30.38,20-38.59a119.35,119.35,0,0,1-19,1.6A132.15,132.15,0,0,1,355.24,3963.35Z" transform="translate(-334.03 -3936.97)"/><path class="b" d="M364.22,3986a2,2,0,0,1-1.84-1.21c-2.61-6.09-3.14-15.29-3.16-15.68a2,2,0,0,1,2.32-2.08,75.29,75.29,0,0,0,11.61,1,2,2,0,0,1,.14,4,67,67,0,0,1-9.86-.66c0.32,3,1.06,8.21,2.63,11.88A2,2,0,0,1,364.22,3986Z" transform="translate(-334.03 -3936.97)"/></svg>